<svg width="16" height="16" viewBox="0 0 16 16" fill="none" xmlns="http://www.w3.org/2000/svg">
    <path fill-rule="evenodd" clip-rule="evenodd"
        d="M13.03 10.53C12.8894 10.6705 12.6988 10.7493 12.5 10.7493C12.3013 10.7493 12.1106 10.6705 11.97 10.53L8 6.56L4.03 10.53C3.96134 10.6037 3.87854 10.6628 3.78654 10.7038C3.69454 10.7448 3.59523 10.7668 3.49452 10.7686C3.39382 10.7704 3.29379 10.7518 3.2004 10.7141C3.10702 10.6764 3.02218 10.6203 2.95096 10.549C2.87974 10.4778 2.8236 10.393 2.78588 10.2996C2.74816 10.2062 2.72963 10.1062 2.73141 10.0055C2.73319 9.90478 2.75523 9.80546 2.79622 9.71346C2.83721 9.62146 2.89631 9.53866 2.97 9.47L7.47 4.97C7.61063 4.82955 7.80125 4.75066 8 4.75066C8.19875 4.75066 8.38938 4.82955 8.53 4.97L13.03 9.47C13.1705 9.61063 13.2493 9.80125 13.2493 10C13.2493 10.1988 13.1705 10.3894 13.03 10.53Z"
        fill="currentColor" />
</svg>