<svg width="647" height="601" viewBox="0 0 647 601" fill="none" xmlns="http://www.w3.org/2000/svg">
    <path clip-rule="evenodd"
        d="M424.156 19.663C424.347 18.5751 423.619 17.5384 422.531 17.3476L326.873 0.567534C325.785 0.376689 324.748 1.10395 324.557 2.1919L290.628 195.615C290.32 197.37 288.044 197.877 287.021 196.418L150.54 1.87081C149.906 0.966565 148.659 0.747772 147.754 1.38213L68.2482 57.1578C67.3439 57.7922 67.1251 59.0394 67.7595 59.9437L180.97 221.322C181.994 222.78 180.742 224.748 178.987 224.44L43.663 200.702C42.575 200.511 41.5383 201.239 41.3475 202.327L24.5675 297.985C24.3766 299.073 25.1039 300.11 26.1918 300.301L160.493 323.859C162.248 324.167 162.754 326.443 161.296 327.466L1.12089 439.833C0.216638 440.467 -0.00215519 441.715 0.6322 442.619L56.4079 522.125C57.0422 523.029 58.2895 523.248 59.1938 522.614L253.741 386.134C255.2 385.11 257.168 386.362 256.86 388.117L223.042 580.904C222.851 581.992 223.578 583.028 224.666 583.219L320.325 599.999C321.413 600.19 322.45 599.463 322.641 598.375L356.57 404.951C356.878 403.196 359.154 402.69 360.177 404.148L496.658 598.696C497.292 599.6 498.539 599.819 499.444 599.185L578.95 543.409C579.854 542.775 580.073 541.527 579.438 540.623L466.228 379.245C465.204 377.786 466.456 375.819 468.211 376.127L603.535 399.865C604.623 400.056 605.66 399.328 605.851 398.24L622.631 302.582C622.821 301.494 622.094 300.457 621.006 300.266L486.705 276.708C484.95 276.4 484.444 274.124 485.902 273.1L646.077 160.734C646.981 160.099 647.2 158.852 646.566 157.948L590.79 78.4417C590.156 77.5375 588.908 77.3187 588.004 77.953L393.457 214.433C391.998 215.456 390.03 214.205 390.338 212.45L424.156 19.663Z"
        fill="#4db5ff" />
</svg>